<svg width="140" height="65" viewBox="0 0 140 65" fill="none" xmlns="http://www.w3.org/2000/svg">
<g filter="url(#filter0_f_505_1408)">
<circle cx="32.053" cy="32.053" r="27.053" stroke="url(#paint0_linear_505_1408)" stroke-width="4"/>
</g>
<path d="M35.1943 26.8128H32.0276V37.0491H35.1943V26.8128Z" fill="#080138"/>
<path d="M38.2519 26.8128L36.2019 29.4752H41.0056V37.0491H44.1723V29.4752H47.8285L49.8785 26.8128H38.2519Z" fill="#080138"/>
<path d="M59.8585 34.4174V26.8128H56.6918V37.0491H65.7329L67.7829 34.4174H59.8585Z" fill="#080138"/>
<path d="M72.0196 34.4174V33.025H78.3072L80.1276 30.6993H72.0196V29.4752H78.6437L80.6937 26.8128H68.8376V37.0491H78.6896L80.7243 34.4174H72.0196Z" fill="#080138"/>
<path d="M97.5136 37.0491L91.119 27.7921C90.6753 27.1495 90.0481 26.6445 89.0996 26.6445C88.1053 26.6445 87.478 27.1954 87.0497 27.7921L80.4868 37.0491H84.2348L89.0384 30.2555L90.8742 32.9638C91.2108 33.4534 91.6391 34.0808 91.9145 34.448C91.425 34.4174 90.7059 34.4174 90.094 34.4174H87.5239L85.6117 37.0491H97.5136Z" fill="#080138"/>
<path d="M111.278 35.06C110.575 34.3409 110.192 33.9737 109.84 33.7135C111.523 33.3769 112.517 32.061 112.517 30.4698C112.517 27.5473 109.58 26.8128 107.255 26.8128H100.677L98.6115 29.4752H107.515C108.601 29.4752 109.259 29.873 109.259 30.6687C109.259 31.3725 108.494 31.8162 107.515 31.8162H98.6115V37.0491H101.778V34.3409H106.643L108.922 37.0491H113.16L111.278 35.06Z" fill="#080138"/>
<path d="M124.671 37.2174C125.589 37.2174 126.415 36.6513 126.415 35.2895V26.8128H123.524V32.8261L117.251 27.1954C116.746 26.7363 116.364 26.6445 115.982 26.6445C115.079 26.6445 114.253 27.1954 114.253 28.5571V37.0491H117.129V31.0359L123.401 36.6666C123.891 37.1256 124.273 37.2174 124.671 37.2174Z" fill="#080138"/>
<path d="M137.818 23.5137H140V27.8425H137.865V32.1243H135.73V36.4061H133.595V40.6879H131.413V36.359H133.548V32.0772H135.683V27.7955H137.818V23.5137Z" fill="#080138"/>
<defs>
<filter id="filter0_f_505_1408" x="0" y="0" width="64.106" height="64.106" filterUnits="userSpaceOnUse" color-interpolation-filters="sRGB">
<feFlood flood-opacity="0" result="BackgroundImageFix"/>
<feBlend mode="normal" in="SourceGraphic" in2="BackgroundImageFix" result="shape"/>
<feGaussianBlur stdDeviation="1.5" result="effect1_foregroundBlur_505_1408"/>
</filter>
<linearGradient id="paint0_linear_505_1408" x1="3" y1="32.0858" x2="44.8668" y2="32.0953" gradientUnits="userSpaceOnUse">
<stop stop-color="#2400FF"/>
<stop offset="1" stop-color="#2400FF" stop-opacity="0"/>
</linearGradient>
</defs>
</svg>
