<svg width="35" height="35" viewBox="0 0 35 35" fill="none" xmlns="http://www.w3.org/2000/svg">
<path d="M17.5 2.1001C9.00307 2.1001 2.09998 9.00319 2.09998 17.5001C2.09998 25.2135 7.78925 31.5969 15.199 32.7101L16.0029 32.8317V20.6966H12.3648V18.2329H16.0029V14.9612C16.0029 12.9466 16.4864 11.6197 17.2867 10.7872C18.087 9.95472 19.2696 9.53486 20.9152 9.53486C22.2311 9.53486 22.743 9.61459 23.2299 9.67432V11.6909H21.5168C20.5448 11.6909 19.7473 12.2332 19.3334 12.9556C18.9195 13.6779 18.7906 14.5404 18.7906 15.4192V18.2315H23.0767L22.6953 20.6952H18.7906V32.8509L19.5849 32.7429C27.1 31.7237 32.9 25.2889 32.9 17.5001C32.9 9.00319 25.9969 2.1001 17.5 2.1001ZM17.5 3.5001C25.2403 3.5001 31.5 9.7598 31.5 17.5001C31.5 24.311 26.625 29.9124 20.1906 31.1733V22.0952H23.8957L24.7092 16.8315H20.1906V15.4192C20.1906 14.693 20.3235 14.0423 20.5474 13.6515C20.7714 13.2606 20.9873 13.0909 21.5168 13.0909H24.6299V8.40693L24.0228 8.3249C23.603 8.26809 22.6444 8.13486 20.9152 8.13486C19.023 8.13486 17.3989 8.65031 16.2777 9.8165C15.1565 10.9827 14.6029 12.7192 14.6029 14.9612V16.8329H10.9648V22.0966H14.6029V31.1296C8.27187 29.7885 3.49998 24.2372 3.49998 17.5001C3.49998 9.7598 9.75968 3.5001 17.5 3.5001Z" fill="white"/>
</svg>
