<svg width="35" height="35" viewBox="0 0 35 35" fill="none" xmlns="http://www.w3.org/2000/svg">
<path d="M11.2 2.1001C6.18271 2.1001 2.09998 6.18284 2.09998 11.2001V23.8001C2.09998 28.8174 6.18271 32.9001 11.2 32.9001H23.8C28.8172 32.9001 32.9 28.8174 32.9 23.8001V11.2001C32.9 6.18284 28.8172 2.1001 23.8 2.1001H11.2ZM11.2 3.5001H23.8C28.0605 3.5001 31.5 6.93956 31.5 11.2001V23.8001C31.5 28.0606 28.0605 31.5001 23.8 31.5001H11.2C6.93944 31.5001 3.49998 28.0606 3.49998 23.8001V11.2001C3.49998 6.93956 6.93944 3.5001 11.2 3.5001ZM25.9 7.7001C25.5287 7.7001 25.1726 7.8476 24.91 8.11015C24.6475 8.3727 24.5 8.7288 24.5 9.1001C24.5 9.4714 24.6475 9.8275 24.91 10.09C25.1726 10.3526 25.5287 10.5001 25.9 10.5001C26.2713 10.5001 26.6274 10.3526 26.8899 10.09C27.1525 9.8275 27.3 9.4714 27.3 9.1001C27.3 8.7288 27.1525 8.3727 26.8899 8.11015C26.6274 7.8476 26.2713 7.7001 25.9 7.7001ZM17.5 9.8001C13.2557 9.8001 9.79998 13.2558 9.79998 17.5001C9.79998 21.7444 13.2557 25.2001 17.5 25.2001C21.7443 25.2001 25.2 21.7444 25.2 17.5001C25.2 13.2558 21.7443 9.8001 17.5 9.8001ZM17.5 11.2001C20.9877 11.2001 23.8 14.0124 23.8 17.5001C23.8 20.9878 20.9877 23.8001 17.5 23.8001C14.0123 23.8001 11.2 20.9878 11.2 17.5001C11.2 14.0124 14.0123 11.2001 17.5 11.2001Z" fill="white"/>
</svg>
