<svg width="25" height="25" viewBox="0 0 25 25" fill="none" xmlns="http://www.w3.org/2000/svg">
<path d="M12.5 0.5C8.08008 0.5 4.5 4.08008 4.5 8.5C4.5 12.1543 6.42969 16.082 8.32812 19.125C10.2266 22.168 12.125 24.3281 12.125 24.3281C12.2207 24.4355 12.3574 24.498 12.5 24.498C12.6426 24.498 12.7793 24.4355 12.875 24.3281C12.875 24.3281 14.7754 22.123 16.6719 19.0625C18.5684 16.002 20.5 12.084 20.5 8.5C20.5 4.08008 16.9199 0.5 12.5 0.5ZM12.5 1.5C16.3809 1.5 19.5 4.61914 19.5 8.5C19.5 11.7168 17.6816 15.541 15.8281 18.5312C14.2754 21.0371 12.9609 22.6504 12.5 23.2031C12.0352 22.6543 10.7207 21.0762 9.17188 18.5938C7.32031 15.625 5.5 11.7949 5.5 8.5C5.5 4.61914 8.61914 1.5 12.5 1.5ZM12.5 5.5C10.5723 5.5 9 7.07227 9 9C9 10.9277 10.5723 12.5 12.5 12.5C14.4277 12.5 16 10.9277 16 9C16 7.07227 14.4277 5.5 12.5 5.5ZM12.5 6.5C13.8867 6.5 15 7.61328 15 9C15 10.3867 13.8867 11.5 12.5 11.5C11.1133 11.5 10 10.3867 10 9C10 7.61328 11.1133 6.5 12.5 6.5Z" fill="white"/>
</svg>
