<svg width="25" height="25" viewBox="0 0 25 25" fill="none" xmlns="http://www.w3.org/2000/svg">
<path d="M5.91993 1.49412C5.53516 1.46287 5.10743 1.5742 4.7129 1.85154C4.36524 2.09373 3.61524 2.68943 2.91407 3.36326C2.56446 3.6992 2.23048 4.04881 1.97267 4.39256C1.7129 4.73631 1.48634 5.05076 1.50001 5.50779C1.51368 5.91795 1.5547 7.13084 2.42774 8.99021C3.30079 10.8476 4.99415 13.3965 8.29688 16.7012C11.6016 20.0058 14.1504 21.6992 16.0078 22.5722C17.8652 23.4453 19.0801 23.4863 19.4902 23.5C19.9453 23.5137 20.2598 23.2871 20.6035 23.0273C20.9473 22.7676 21.2969 22.4355 21.6328 22.0859C22.3047 21.3847 22.9004 20.6347 23.1426 20.2871C23.6953 19.5 23.6035 18.5703 22.9883 18.1387C22.6016 17.8672 19.0449 15.5 18.5098 15.1719C17.9668 14.8398 17.3418 14.9902 16.7832 15.2851C16.3438 15.5176 15.1543 16.1992 14.8145 16.3945C14.5586 16.2324 13.5879 15.5859 11.5 13.498C9.41016 11.4101 8.76563 10.4394 8.60352 10.1836C8.79884 9.84373 9.47852 8.66014 9.7129 8.21287C10.0059 7.65623 10.1699 7.02537 9.82032 6.4785C9.67384 6.24607 9.00782 5.2324 8.33595 4.21482C7.66212 3.19725 7.02345 2.2324 6.85743 2.00193V1.99998C6.64063 1.70115 6.30274 1.52537 5.91993 1.49412ZM12.5 2.49998V3.49998C17.4629 3.49998 21.5 7.53709 21.5 12.5H22.5C22.5 6.98631 18.0137 2.49998 12.5 2.49998ZM5.82813 2.5156C5.96485 2.53318 6.04688 2.58787 6.04688 2.58787C6.12696 2.6992 6.82813 3.74998 7.50001 4.7656C8.17188 5.78318 8.85743 6.82615 8.97657 7.0156C8.9961 7.0449 9.02345 7.37693 8.82813 7.74607V7.74803C8.60743 8.16795 7.57813 9.96678 7.57813 9.96678L7.43556 10.2187L7.58204 10.4687C7.58204 10.4687 8.34962 11.7637 10.791 14.2051C13.2344 16.6465 14.5293 17.416 14.5293 17.416L14.7793 17.5625L15.0313 17.4199C15.0313 17.4199 16.8262 16.3926 17.25 16.1699C17.6191 15.9765 17.9512 16.0019 17.9902 16.0254C18.3359 16.2383 22.1777 18.791 22.4141 18.957C22.4219 18.9629 22.6309 19.2793 22.3262 19.7129H22.3242C22.1406 19.9765 21.5391 20.7402 20.9121 21.3926C20.5977 21.7187 20.2754 22.0234 20.002 22.2285C19.7285 22.4336 19.4844 22.498 19.5234 22.5C19.0977 22.4863 18.1582 22.4765 16.4336 21.666C14.709 20.8574 12.2481 19.2383 9.00391 15.9922C5.76173 12.75 4.14259 10.289 3.33204 8.56248C2.52345 6.83787 2.51368 5.89842 2.50001 5.47459C2.50196 5.51365 2.56642 5.26756 2.77149 4.99412C2.97657 4.72068 3.27931 4.39646 3.60548 4.08201C4.25977 3.45506 5.02149 2.8535 5.28517 2.6699V2.67185C5.50196 2.51951 5.69142 2.49998 5.82813 2.5156ZM12.5 5.27146V6.27146C15.9356 6.27146 18.7285 9.06639 18.7285 12.5H19.7285C19.7285 8.51365 16.4863 5.27146 12.5 5.27146ZM12.5 7.99998V8.99998C14.4297 8.99998 16 10.5703 16 12.5H17C17 10.0176 14.9805 7.99998 12.5 7.99998Z" fill="white"/>
</svg>
