<svg width="35" height="35" viewBox="0 0 35 35" fill="none" xmlns="http://www.w3.org/2000/svg">
<path d="M17.0816 6.30005C12.4605 6.30005 8.12107 6.65005 5.81052 7.1395C4.27107 7.4895 2.93943 8.5395 2.66052 10.15C2.38162 11.829 2.09998 14.35 2.09998 17.5C2.09998 20.65 2.37888 23.1 2.72888 24.85C3.01052 26.3895 4.33943 27.5106 5.87888 27.8606C8.33162 28.35 12.5289 28.7 17.15 28.7C21.7711 28.7 25.9683 28.35 28.4183 27.8606C29.9605 27.5106 31.2894 26.4606 31.5683 24.85C31.85 23.1 32.2 20.5817 32.2683 17.4317C32.2683 14.2817 31.9183 11.7606 31.5683 10.0106C31.2894 8.47114 29.9605 7.35005 28.4183 7.00005C25.9683 6.65005 21.7 6.30005 17.0816 6.30005ZM17.0816 7.70005C22.1211 7.70005 26.1789 8.11841 28.1394 8.46841C29.1894 8.75005 30.0289 9.45005 30.1683 10.3606C30.5894 12.6 30.8683 14.9817 30.8683 17.4317C30.8 20.4395 30.45 22.8895 30.1683 24.6395C29.9605 25.9684 28.5605 26.3895 28.1394 26.5317C25.6183 27.0211 21.4183 27.3684 17.2183 27.3684C13.0183 27.3684 8.74998 27.0895 6.29998 26.5317C5.24998 26.25 4.41052 25.55 4.27107 24.6395C3.71052 22.679 3.49998 20.0895 3.49998 17.5C3.49998 14.279 3.78162 11.9 4.06052 10.4317C4.27107 9.10005 5.73943 8.67896 6.08943 8.5395C8.39998 8.05005 12.6711 7.70005 17.0816 7.70005ZM13.3 11.9V23.1L23.1 17.5L13.3 11.9ZM14.7 14.2817L20.3 17.5L14.7 20.7184V14.2817Z" fill="white"/>
</svg>
